<?xml version="1.0" encoding="iso-8859-1"?><!-- Generator: Adobe Illustrator 19.1.1, SVG Export Plug-In . SVG Version: 6.00 Build 0)  --><svg xmlns="http://www.w3.org/2000/svg" xmlns:xlink="http://www.w3.org/1999/xlink" viewBox="0 0 48 48" width="48px" height="48px"><rect x="9" y="39" style="fill:#9FA8DA;" width="3" height="2"/><rect x="11" y="15" style="fill:#9FA8DA;" width="26" height="7"/><polygon style="fill:#E8EAF6;" points="40,37 39,39 36,39 36,14 40,14 "/><rect x="36" y="24" style="fill:#C5CAE9;" width="4" height="10"/><path style="fill:#C5CAE9;" d="M34,15v-4c0-5.5-4.5-10-10-10S14,5.5,14,11v4H34z"/><rect x="22" y="7" style="fill:#3F51B5;" width="4" height="7"/><circle style="fill:#000001;" cx="24" cy="9" r="1"/><circle style="fill:#FFFF8D;" cx="24.5" cy="12.5" r="0.5"/><circle style="fill:#7986CB;" cx="28" cy="12" r="1"/><path style="fill:#3F51B5;" d="M31.119,4C29.302,2.152,26.78,1,24,1s-5.302,1.152-7.119,3H31.119z"/><path style="fill:#3F51B5;" d="M34,11c0-0.337-0.018-0.671-0.051-1H30v4h4V11z"/><path style="fill:#3F51B5;" d="M21.06,14v-4H14.11c-0.033,0.329-0.051,0.663-0.051,1v3H21.06z"/><rect x="13" y="14" style="fill:#E8EAF6;" width="22" height="23"/><rect x="17" y="15" style="fill:#3F51B5;" width="14" height="2"/><rect x="17" y="18" style="fill:#3F51B5;" width="14" height="2"/><rect x="22" y="22" style="fill:#3F51B5;" width="4" height="9"/><rect x="22" y="33" style="fill:#3F51B5;" width="4" height="4"/><rect x="30" y="33" style="fill:#90A4AE;" width="2" height="3"/><rect x="15" y="32" style="fill:#90A4AE;" width="2" height="4"/><path style="fill:#CFD8DC;" d="M24,23L24,23c0.552,0,1,0.448,1,1v1c0,0.552-0.448,1-1,1h0c-0.552,0-1-0.448-1-1v-1C23,23.448,23.448,23,24,23z"/><path style="fill:#CFD8DC;" d="M24,27L24,27c0.552,0,1,0.448,1,1v1c0,0.552-0.448,1-1,1h0c-0.552,0-1-0.448-1-1v-1C23,27.448,23.448,27,24,27z"/><circle style="fill:#000001;" cx="24" cy="35" r="1"/><polygon style="fill:#9FA8DA;" points="31,40 17,40 15,37 33,37 "/><rect x="40" y="16" style="fill:#3F51B5;" width="1" height="4"/><polygon style="fill:#E8EAF6;" points="8,37 9,39 12,39 12,14 8,14 "/><rect x="8" y="23" style="fill:#C5CAE9;" width="4" height="10"/><rect x="7" y="16" style="fill:#3F51B5;" width="1" height="4"/><polygon style="fill:#C5CAE9;" points="8,40 7,46 8,47 13,47 14,46 14,40 "/><path style="fill:#9FA8DA;" d="M13,45c-0.552,0-1-0.448-1-1v-5c0-0.55,0.45-1,1-1h0c0.55,0,1,0.45,1,1v5C14,44.552,13.552,45,13,45L13,45z"/><path style="fill:#8D6E63;" d="M13,45h-3c-0.55,0-1-0.45-1-1l0,0c0-0.55,0.45-1,1-1h3c0.55,0,1,0.45,1,1l0,0C14,44.55,13.55,45,13,45z"/><rect x="36" y="39" style="fill:#9FA8DA;" width="3" height="2"/><polygon style="fill:#C5CAE9;" points="40,40 41,46 40,47 35,47 34,46 34,40 "/><path style="fill:#9FA8DA;" d="M35,45c0.552,0,1-0.448,1-1v-5c0-0.55-0.45-1-1-1l0,0c-0.55,0-1,0.45-1,1v5C34,44.552,34.448,45,35,45L35,45z"/><path style="fill:#8D6E63;" d="M35,45h3c0.55,0,1-0.45,1-1l0,0c0-0.55-0.45-1-1-1h-3c-0.55,0-1,0.45-1,1l0,0C34,44.55,34.45,45,35,45z"/></svg>