<svg xmlns="http://www.w3.org/2000/svg" xmlns:xlink="http://www.w3.org/1999/xlink" viewBox="0,0,256,256" width="64px" height="64px" fill-rule="nonzero"><g fill="none" fill-rule="nonzero" stroke="none" stroke-width="none" stroke-linecap="none" stroke-linejoin="none" stroke-miterlimit="10" stroke-dasharray="" stroke-dashoffset="0" font-family="none" font-weight="none" font-size="none" text-anchor="none" style="mix-blend-mode: normal"><g transform="scale(4,4)"><path d="M54,20c0,-5.523 -4.477,-10 -10,-10h-12h-12c-5.523,0 -10,4.477 -10,10v24.008c0,5.523 4.477,10 10,10h12h12c5.523,0 10,-4.477 10,-10z" fill="#2d00ed" stroke="none" stroke-width="1" stroke-linecap="butt" stroke-linejoin="miter"></path><path d="M14.01,12h-0.01c-2.24,1.69 -3.75,4.29 -3.97,7.25c-0.02,0.24 -0.03,0.5 -0.03,0.75v12c2.761,0 5,-2.239 5,-5v-7c0,-0.108 0.003,-0.221 0.017,-0.38c0.102,-1.375 0.778,-2.65 1.862,-3.525c0.048,-0.033 0.095,-0.068 0.142,-0.103c0.86,-0.649 1.891,-0.992 2.979,-0.992h5c2.761,0 5,-2.239 5,-5h-10c-2.25,0 -4.32,0.74 -5.99,2z" fill="#ffffff" stroke="none" stroke-width="1" stroke-linecap="butt" stroke-linejoin="miter" opacity="0.3"></path><path d="M54,44v-12c-2.761,0 -5,2.238 -5,5v7c0,2.757 -2.243,5 -5,5h-5c-2.761,0 -5,2.238 -5,5h10c5.523,0 10,-4.477 10,-10z" fill="#0051ba" stroke="none" stroke-width="1" stroke-linecap="butt" stroke-linejoin="miter" opacity="0.15"></path><path d="M13.5,23.5v-3.5c0,-0.153 0.005,-0.312 0.018,-0.459c0.135,-1.809 1.003,-3.46 2.396,-4.594l0.204,-0.152" fill="none" stroke="#ffffff" stroke-width="3" stroke-linecap="round" stroke-linejoin="round"></path><ellipse cx="32.125" cy="61" rx="20" ry="3" fill="#0051ba" stroke="none" stroke-width="1" stroke-linecap="butt" stroke-linejoin="miter" opacity="0.3"></ellipse><path d="M32.536,20.968c3.48,0 8.232,1.441 8.232,4.816c0,1.428 -1.148,2.548 -2.548,2.548c-2.575,0 -2.118,-3.137 -5.684,-3.137c-2.66,0 -4.704,1.988 -4.704,6.721c0,4.899 2.156,6.888 4.704,6.888c3.735,0 3.21,-3.5 5.936,-3.5c1.428,0 2.604,1.176 2.604,2.632c0,3.462 -4.793,5.096 -8.54,5.096c-6.832,0 -10.36,-4.144 -10.36,-10.863c0,-6.636 4.004,-11.201 10.36,-11.201z" fill="#ffffff" stroke="none" stroke-width="1" stroke-linecap="butt" stroke-linejoin="miter"></path></g></g></svg>